<?xml version="1.0" encoding="UTF-8"?>
<svg width="64px" height="60px" viewBox="0 0 64 60" version="1.1" xmlns="http://www.w3.org/2000/svg" xmlns:xlink="http://www.w3.org/1999/xlink">
    <!-- Generator: Sketch 53.2 (72643) - https://sketchapp.com -->
    <title>Group 2</title>
    <desc>Created with Sketch.</desc>
    <g id="App" stroke="none" stroke-width="1" fill="none" fill-rule="evenodd">
        <g id="home" transform="translate(-71.000000, -136.000000)" fill-rule="nonzero">
            <g id="Group-2" transform="translate(71.000000, 136.000000)">
                <g id="001-beer">
                    <path d="M25.7254849,53.7713833 C25.7800377,54.4497575 25.5734443,55.1235856 25.1481344,55.6549704 L23.0170394,58.3189655 C22.7685209,58.6296134 22.7200296,59.0549232 22.8922751,59.4135574 C23.0645205,59.7721915 23.4271955,60 23.8252291,60 L42.2782192,60 C42.6762528,60 43.0389278,59.7721915 43.2111732,59.4135574 C43.3834187,59.0549232 43.3349273,58.6296134 43.0864089,58.3189655 L40.9553139,55.6549704 C40.530004,55.1235856 40.3234106,54.4497575 40.3779634,53.7713833 L45.3518656,4.2414803 C45.3806573,3.95154233 45.2862001,3.66261453 45.0912244,3.44591871 C44.8962486,3.22922276 44.6189386,3.10496366 44.3274852,3.10344828 L34.0862069,3.10344828 L34.0862069,6.09627556 C34.1094424,7.13580957 33.3840921,8.04199216 32.3647629,8.24808052 C31.7636718,8.35061961 31.1479324,8.18241517 30.6822131,7.7889278 C30.2164938,7.39544043 29.9477708,6.81657466 29.9482759,6.20689655 L29.9482759,9.19972384 C29.9715114,10.2392578 29.246161,11.1454404 28.2268319,11.3515288 C27.6257408,11.4540679 27.0100014,11.2858634 26.544282,10.8923761 C26.0785628,10.4988887 25.8098397,9.92002293 25.8103448,9.31034483 L25.8103448,3.10344828 L21.7759631,3.10344828 C21.4834994,3.10344828 21.204674,3.22720228 21.0086881,3.4438981 C20.812702,3.66059405 20.7172346,3.95053203 20.7465316,4.2414803 L25.7254849,53.7713833 Z" id="Path" fill="#E2E2E2"></path>
                    <path d="M23.7413793,5.17241379 L42.362069,5.17241379 L38.6721781,47.6059066 C38.4186085,50.5214507 35.9778758,52.7586207 33.0517241,52.7586207 C30.1255725,52.7586207 27.6848397,50.5214507 27.4312702,47.6059066 L23.7413793,5.17241379 Z" id="Path" fill="#F4C734"></path>
                    <path d="M32.0172414,0 C30.814049,0.00151536207 29.7209726,0.70059944 29.2138334,1.79165547 C28.2985588,0.457132241 26.6867255,-0.218716293 25.0930765,0.0641500862 C23.4999326,0.346511379 22.218952,1.53556034 21.818393,3.10344828 L25.8103448,3.10344828 L25.8103448,9.31034483 C25.8103448,10.452923 26.7367322,11.3793103 27.8793103,11.3793103 C29.0218885,11.3793103 29.9482759,10.452923 29.9482759,9.31034483 L29.9482759,6.20689655 C29.9482759,7.34947474 30.8746632,8.27586207 32.0172414,8.27586207 C33.1598196,8.27586207 34.0862069,7.34947474 34.0862069,6.20689655 L34.0862069,3.10344828 L35.1206897,3.10344828 C35.1206897,1.38958112 33.7311085,0 32.0172414,0 Z" id="Path" fill="#F9F2CC"></path>
                    <path d="M41.3275862,0 L38.2241379,0 C36.5102708,0 35.1206897,1.38958112 35.1206897,3.10344828 L44.4310345,3.10344828 C44.4310345,1.38958112 43.0414534,0 41.3275862,0 Z" id="Path" fill="#F9F2CC"></path>
                    <path d="M2.19827586,60 L18.75,60 C19.8925782,60 20.8189655,59.0736127 20.8189655,57.9310345 L20.8189655,54.8275862 L0.129310345,54.8275862 L0.129310345,57.9310345 C0.129310345,59.0736127 1.05569767,60 2.19827586,60 Z" id="Path" fill="#A3740C"></path>
                    <path d="M17.7453193,20.2466663 L17.6857152,20.0981613 C15.6551387,15.0217201 14.612069,9.60482897 14.612069,4.13793103 L6.3362069,4.13793103 C6.3362069,9.60482897 5.29313716,15.0217201 3.26256065,20.0981613 L3.20295659,20.2466663 C1.43100078,24.677566 0.409651164,29.3716325 0.179822198,34.137931 L20.7664332,34.137931 C20.5376145,29.3721376 19.51677,24.677566 17.7453193,20.2466663 Z" id="Path" fill="#A3740C"></path>
                    <g id="Group" transform="translate(0.000000, 34.137931)" fill="#F4C734">
                        <path d="M20.8189655,0 L20.7684537,0 C20.8022966,0.689486767 20.8189655,1.37947875 20.8189655,2.06896552 L20.8189655,0 Z" id="Path"></path>
                        <path d="M0.129310345,0 L0.129310345,2.06896552 C0.129310345,1.37947875 0.145979224,0.689486767 0.179822198,0 L0.129310345,0 Z" id="Path"></path>
                        <path d="M20.8189655,2.06896552 C20.8189655,1.37947875 20.8022966,0.689486767 20.7684537,0 L0.179822198,0 C0.145979224,0.689486767 0.129310345,1.37947875 0.129310345,2.06896552 L0.129310345,20.6896552 L20.8189655,20.6896552 L20.8189655,2.06896552 Z" id="Path"></path>
                    </g>
                    <path d="M10.4741379,38.2758621 C7.04640362,38.2758621 4.26724138,41.0550243 4.26724138,44.4827586 C4.26724138,47.9104929 7.04640362,50.6896552 10.4741379,50.6896552 C13.9018722,50.6896552 16.6810345,47.9104929 16.6810345,44.4827586 C16.6774986,41.0560345 13.9008621,38.2793979 10.4741379,38.2758621 Z M10.4741379,48.6206897 C8.18898168,48.6206897 6.3362069,46.7679149 6.3362069,44.4827586 C6.3362069,42.1976024 8.18898168,40.3448276 10.4741379,40.3448276 C12.7592942,40.3448276 14.612069,42.1976024 14.612069,44.4827586 C14.612069,46.7679149 12.7592942,48.6206897 10.4741379,48.6206897 Z" id="Shape" fill="#F49E34"></path>
                    <path d="M28.9137931,53.7931034 L37.1896552,53.7931034 C37.7609443,53.7931034 38.2241379,54.2562971 38.2241379,54.8275862 C38.2241379,55.3988753 37.7609443,55.862069 37.1896552,55.862069 L28.9137931,55.862069 C28.342504,55.862069 27.8793103,55.3988753 27.8793103,54.8275862 C27.8793103,54.2562971 28.342504,53.7931034 28.9137931,53.7931034 Z" id="Path" fill="#CCCCCC"></path>
                    <path d="M37.1906653,17.5286234 L37.5957705,10.2417834 C37.6270878,9.6709994 38.1155374,9.23457698 38.6858162,9.2658944 C39.2560951,9.2977169 39.6930226,9.78616655 39.6612001,10.3564453 L39.2566002,17.6432853 C39.2247777,18.2140693 38.7368333,18.6504917 38.1660493,18.6191743 C37.5957705,18.5873519 37.158843,18.0989022 37.1906653,17.5286234 Z" id="Path" fill="#F9F2CC"></path>
                    <path d="M38.2241379,19.6551724 C38.795427,19.6551724 39.2586207,20.1183661 39.2586207,20.6896552 C39.2586207,21.2609443 38.795427,21.7241379 38.2241379,21.7241379 C37.6528488,21.7241379 37.1896552,21.2609443 37.1896552,20.6896552 C37.1896552,20.1183661 37.6528488,19.6551724 38.2241379,19.6551724 Z" id="Path" fill="#F9F2CC"></path>
                    <path d="M14.6484375,5.66793504 C14.6307583,5.15776539 14.612069,4.64911099 14.612069,4.13793103 L6.3362069,4.13793103 C6.33216595,5.80532728 6.23114224,7.47070319 6.03414595,9.12597659 L14.6484375,5.66793504 Z" id="Path" fill="#855E0A"></path>
                    <path d="M10.4741379,35.1724138 C5.33203125,35.1724138 1.1637931,39.3406519 1.1637931,44.4827586 C1.1637931,49.6248653 5.33203125,53.7931034 10.4741379,53.7931034 C15.6162446,53.7931034 19.7844828,49.6248653 19.7844828,44.4827586 C19.7789264,39.3431775 15.6137191,35.1779701 10.4741379,35.1724138 Z M10.4741379,50.6896552 C7.04640362,50.6896552 4.26724138,47.9104929 4.26724138,44.4827586 C4.26724138,41.0550243 7.04640362,38.2758621 10.4741379,38.2758621 C13.9018722,38.2758621 16.6810345,41.0550243 16.6810345,44.4827586 C16.6769935,47.9089777 13.900357,50.6856142 10.4741379,50.6896552 Z" id="Shape" fill="#F9F2CC"></path>
                    <path d="M6.3362069,0 L14.612069,0 C15.1833581,0 15.6465517,0.463193664 15.6465517,1.03448276 L15.6465517,3.10344828 C15.6465517,3.67473737 15.1833581,4.13793103 14.612069,4.13793103 L6.3362069,4.13793103 C5.7649178,4.13793103 5.30172414,3.67473737 5.30172414,3.10344828 L5.30172414,1.03448276 C5.30172414,0.463193664 5.7649178,0 6.3362069,0 Z" id="Path" fill="#E2E2E2"></path>
                    <path d="M5.30172414,3.10344828 C5.30172414,3.67473737 5.7649178,4.13793103 6.3362069,4.13793103 L14.612069,4.13793103 C15.1833581,4.13793103 15.6465517,3.67473737 15.6465517,3.10344828 L5.30172414,3.10344828 Z" id="Path" fill="#CCCCCC"></path>
                </g>
                <path d="M63.7258065,30.3629032 C63.7258065,36.7764617 58.5264617,41.9758065 52.1129032,41.9758065 C45.6993447,41.9758065 40.5,36.7764617 40.5,30.3629032 C40.5,23.9493447 45.6993447,18.75 52.1129032,18.75 C58.5264617,18.75 63.7258065,23.9493447 63.7258065,30.3629032 Z" id="Path" fill="#A3740C"></path>
                <path d="M49.5827873,35.3857107 C50.7274446,36.1493196 52.0724546,36.5564516 53.4484627,36.5564516 L58.2236643,36.5564516 C59.0016381,36.5738408 59.6798135,36.0309979 59.8340474,35.2681452 C59.9107863,34.8182963 59.7849043,34.3574849 59.4904234,34.0089465 C59.1959425,33.6604083 58.7627268,33.4592994 58.3064516,33.4596774 C59.1615424,33.4596774 59.8548387,32.7663811 59.8548387,31.9112903 C59.8548387,31.0561995 59.1615424,30.3629032 58.3064516,30.3629032 C58.7627268,30.3632812 59.1959425,30.1621724 59.4904234,29.8136341 C59.7849043,29.4650957 59.9107863,29.0042843 59.8340474,28.5544355 C59.6798135,27.7915827 59.0016381,27.2487399 58.2236643,27.266129 L56.3709677,27.266129 C55.3019153,27.266129 54.4354839,26.3996976 54.4354839,25.3306452 L54.4354839,24.1693548 C54.4358619,22.8421119 53.5902218,21.6622984 52.3336694,21.2358871 C52.0992944,21.1633065 51.844128,21.2071573 51.6475554,21.3538306 C51.4509828,21.500504 51.3360635,21.7322328 51.3387097,21.9775705 L51.3387097,26.4919355 C51.3387097,27.5927419 50.9122984,28.1835938 50.2802419,28.3941532 L49.5457409,28.6387349 C49.2293347,28.7442037 49.016129,29.0401965 49.016129,29.3736139 L49.016129,34.594506 C49.016129,34.8534526 49.1454134,35.0950101 49.3605091,35.2386592 L49.5827873,35.3857107 Z" id="Path" fill="#F9F2CC"></path>
                <path d="M45.9193548,28.0403226 L47.4677419,28.0403226 C47.8952873,28.0403226 48.2419355,28.3869707 48.2419355,28.8145161 L48.2419355,35.0080645 C48.2419355,35.4356099 47.8952873,35.7822581 47.4677419,35.7822581 L45.9193548,35.7822581 C45.4918095,35.7822581 45.1451613,35.4356099 45.1451613,35.0080645 L45.1451613,28.8145161 C45.1451613,28.3869707 45.4918095,28.0403226 45.9193548,28.0403226 Z" id="Path" fill="#F9F2CC"></path>
            </g>
        </g>
    </g>
</svg>