<?xml version="1.0" encoding="UTF-8"?>
<svg width="211px" height="227px" viewBox="0 0 211 227" version="1.1" xmlns="http://www.w3.org/2000/svg" xmlns:xlink="http://www.w3.org/1999/xlink">
    <!-- Generator: Sketch 53.2 (72643) - https://sketchapp.com -->
    <title>Group 2</title>
    <desc>Created with Sketch.</desc>
    <defs>
        <path d="M3.16304259,15.0682503 C5.1161931,9.68832289 11.3056758,4.79123343 16.993415,4.12962295 L13.4267043,4.54451069 C19.1118575,3.88320101 23.6151871,7.99669227 23.4856136,13.7127874 L23.3809166,18.3314632 C23.2511456,24.0562723 18.7522205,27.1912866 13.340294,25.3364581 L10.7795798,24.4588251 C5.36406812,22.6027679 2.56122545,16.7259477 4.51042032,11.356916 L3.16304259,15.0682503 Z" id="path-1"></path>
        <path d="M1.98056939,9.14917448 C2.51435045,6.22453304 5.33726758,3.5540129 8.27836998,3.18532359 L8.03420751,3.21593119 C10.9786057,2.84682874 13.6265598,4.94021614 13.9485129,7.89104038 L14.2057711,10.2489112 C14.5277536,13.2000051 12.5135741,14.7995616 9.7054089,13.8210749 L6.7241273,12.7822668 C3.91666337,11.8040244 2.0721164,8.64757896 2.60726029,5.71547045 L1.98056939,9.14917448 Z" id="path-3"></path>
        <path d="M-0.224681951,76.0048149 C-6.34930162,35.3447348 22.0164889,2.38322726 63.1362224,2.38322726 L76.8805761,2.38322726 C117.998457,2.38322726 151.331085,35.7211044 151.331085,76.8454021 L151.331085,78.6112671 C151.331085,119.735591 118.013851,152.065908 76.9078942,150.822839 L85.1669462,151.072597 C44.0641527,149.829623 5.77975413,115.867021 -0.345849852,75.2004063 L-0.224681951,76.0048149 Z" id="path-5"></path>
        <path d="M-4.9016349,153.729473 L-1.66194603,89.7189304 C0.627255694,44.4883392 39.1874688,6.77523533 84.4433311,5.48496459 L93.0983787,5.23820419 C138.363808,3.94766069 175.058689,39.6052808 175.058689,84.9085459 L175.058689,71.7223951 C175.058689,117.013653 139.033079,160.813519 94.6021654,169.550378 L75.5548895,173.295819 C31.1199782,182.033464 -4.9016349,153.729473 -4.9016349,153.729473 L-4.9016349,153.729473 Z" id="path-7"></path>
        <rect id="path-9" x="0" y="0" width="124.615801" height="102.306011" rx="51.1530055"></rect>
    </defs>
    <g id="App" stroke="none" stroke-width="1" fill="none" fill-rule="evenodd">
        <g id="home-8" transform="translate(-81.000000, -185.000000)">
            <g id="Group-2" transform="translate(53.000000, 152.000000)">
                <g id="//illustration">
                    <g id="/stroke">
                        <ellipse id="fill" fill="#FAFAFA" cx="132.462809" cy="156.091892" rx="100.968826" ry="101.177636"></ellipse>
                        <g id="::top-right-2" transform="translate(205.655825, 95.535760)">
                            <mask id="mask-2" fill="white">
                                <use xlink:href="#path-1"></use>
                            </mask>
                            <g id="Rectangle-74" transform="translate(13.087088, 14.746707) rotate(-32.000000) translate(-13.087088, -14.746707) "></g>
                            <ellipse id="stroke" stroke="#3D3F58" stroke-width="4" mask="url(#mask-2)" cx="-76.0706896" cy="60.5682645" rx="103.548082" ry="103.048084"></ellipse>
                        </g>
                        <g id="::top-right-1" transform="translate(220.669777, 119.607763)">
                            <mask id="mask-4" fill="white">
                                <use xlink:href="#path-3"></use>
                            </mask>
                            <g id="Rectangle-74" transform="translate(7.946881, 8.415408) rotate(-32.000000) translate(-7.946881, -8.415408) "></g>
                            <ellipse id="stroke" stroke="#3D3F58" stroke-width="4" mask="url(#mask-4)" cx="-92.0855716" cy="36.5259206" rx="104.473942" ry="104.694136"></ellipse>
                        </g>
                        <g id="::mid-right" transform="translate(157.611179, 135.148264)">
                            <mask id="mask-6" fill="white">
                                <use xlink:href="#path-5"></use>
                            </mask>
                            <g id="Rectangle-74" transform="translate(74.930204, 76.841845) rotate(-270.000000) translate(-74.930204, -76.841845) "></g>
                            <ellipse id="stroke" stroke="#3D3F58" stroke-width="4" mask="url(#mask-6)" cx="-27.4194672" cy="20.3182907" rx="102.950374" ry="103.015034"></ellipse>
                        </g>
                        <g id="::bot-left" transform="translate(0.000000, 140.670765)">
                            <mask id="mask-8" fill="white">
                                <use xlink:href="#path-7"></use>
                            </mask>
                            <g id="Rectangle-74" transform="translate(85.078527, 90.087239) rotate(-270.000000) translate(-85.078527, -90.087239) "></g>
                            <ellipse id="stroke" stroke="#3D3F58" stroke-width="4" mask="url(#mask-8)" cx="133.493463" cy="14.1785355" rx="102.964943" ry="102.921163"></ellipse>
                        </g>
                        <g id="::top-right" transform="translate(111.818625, 0.000000)">
                            <mask id="mask-10" fill="white">
                                <use xlink:href="#path-9"></use>
                            </mask>
                            <g id="Rectangle-74"></g>
                            <ellipse id="stroke" stroke="#3D3F58" stroke-width="4" mask="url(#mask-10)" cx="19.825241" cy="158.195406" rx="102.79056" ry="103.147845"></ellipse>
                        </g>
                    </g>
                </g>
                <g id="015-cheers" transform="translate(31.000000, 33.000000)" fill-rule="nonzero">
                    <path d="M104.351875,198.603642 L107.497279,180.356547 C107.497279,180.356547 78.9333698,95.7591795 78.7459309,94.6271267 C78.3746233,92.4537301 78.3192841,90.2349789 78.5816987,88.0452547 L43.9893958,83 L43.0164985,88.6548217 L29.1245951,86.1838988 C24.6974659,85.3947272 20.1435925,86.4251856 16.466219,89.0485006 C12.7870601,91.6736293 10.2878742,95.6775408 9.51669684,100.176725 L0.253643041,153.894811 C-1.34940595,163.257831 4.81287235,172.170933 14.0241574,173.809145 L27.9178458,176.283696 L26.455822,184.763207 C24.4475477,184.362272 22.3839338,185.095204 21.0593655,186.680804 C19.7347972,188.264589 19.3563486,190.454313 20.0721872,192.40275 C20.7880254,194.351187 22.4839012,195.753554 24.506457,196.069223 L102.377518,209.913286 C105.451517,210.459357 108.37735,208.369413 108.914675,205.247196 C109.452,202.123166 107.395527,199.149713 104.323313,198.603642 L104.351875,198.603642 Z M29.8761364,164.974053 L18.751189,162.998403 C14.143761,162.180204 11.060837,157.719118 11.867717,153.0367 L20.138237,104.980693 C20.9415465,100.298276 25.3311881,97.1651743 29.9386157,97.985187 L41.0635631,99.9608368 L29.8761364,164.974053 Z" id="Shape" fill="#E2E2E2"></path>
                    <path d="M87.0032026,93.6882224 C85.1307553,94.3480844 83.2939058,95.0694133 81.4232387,95.6099575 C80.5884686,95.8504008 80.0153433,96.065534 79.8302345,94.937441 C79.4368778,92.6921017 79.385261,90.3997587 79.6771634,88.1381489 C79.6771634,88.0206394 79.7394598,87.9085534 79.757259,87.7946593 L48.8120406,84 L32.0454494,183.536134 C31.7304085,185.555493 33.0866867,187.451919 35.0748274,187.771907 L98.2574656,197.95367 C100.229587,198.27185 102.087795,196.917776 102.422415,194.918304 L106,172.951223 L87.5425103,96.0185299 C87.3040049,95.2574288 87.1242354,94.478249 87.0032026,93.6882224 Z" id="Path" fill="#F4C734"></path>
                    <path d="M80,96.7337683 L112.97405,193.923206 C110.049658,194.974302 108.50473,198.181678 109.504707,201.131238 C110.506482,204.080797 113.682667,205.679978 116.639432,204.722633 L192.053139,179.005933 C194.977531,177.95664 196.522459,174.747462 195.520684,171.797902 C194.520708,168.848342 191.344522,167.250964 188.387757,168.206506 L185.073086,158.476204 L196.405556,154.610766 C205.3388,151.574667 210.121062,141.851576 207.088759,132.900131 L189.68449,81.6055553 C186.64679,72.659519 176.950974,67.8727944 168.026722,70.9161055 L156.692454,74.7995726 L155.41011,71.0332945 L80,96.7337683 Z M190.071171,144.734428 L181.429286,147.687594 L160.357836,85.5827737 L168.997922,82.627805 C173.460048,81.1061495 178.307057,83.4986104 179.823209,87.9716285 L195.400183,133.877308 C196.919932,138.350326 194.533297,143.209167 190.071171,144.72902 L190.071171,144.734428 Z" id="Shape" fill="#E2E2E2"></path>
                    <path d="M153.321463,73 L84,96.3582437 L116.368047,188.54116 C117.0316,190.435892 119.112416,191.446654 121.032753,190.809124 L182.479933,170.408162 C184.414695,169.765275 185.455103,167.693748 184.807778,165.777587 L153.321463,73 Z" id="Path" fill="#F4C734"></path>
                    <path d="M79.3042599,90.0344619 C80.3952243,81.5691482 88.0574723,75.3306261 96.9108568,75.7005892 C97.2477994,75.2043829 97.6120612,74.7239568 98,74.2645717 C97.5428512,74.1207944 97.0784177,74.0015647 96.6085197,73.9051292 C92.4195082,73.4036626 88.1722149,73.6473823 84.0742687,74.622261 C78.2424365,68.1680732 69.0739656,65.5187175 60.5138113,67.8138904 C51.9518363,70.1090634 45.526257,76.9384745 44,85.3669673 L79.1931597,92 C79.2186583,91.3565098 79.211373,90.6884721 79.3042599,90.0344619 Z" id="Path" fill="#F9F2CC"></path>
                    <path d="M150,8 C150,12.417969 146.417969,16 142,16 C137.580078,16 134,12.417969 134,8 C134,3.582031 137.580078,0 142,0 C146.417969,0 150,3.582031 150,8 Z" id="Path" fill="#F9F2CC"></path>
                    <path d="M120,33 C120,40.7314453 113.955322,47 106.5,47 C99.0430299,47 93,40.7314453 93,33 C93,25.2685547 99.0430299,19 106.5,19 C113.955322,19 120,25.2685547 120,33 Z" id="Path" fill="#F9F2CC"></path>
                    <path d="M67,36 C67,42.0747069 62.0747069,47 56,47 C49.9235028,47 45,42.0747069 45,36 C45,29.9252931 49.9235028,25 56,25 C62.0747069,25 67,29.9252931 67,36 Z" id="Path" fill="#F9F2CC"></path>
                    <path d="M43,8 C43,12.417969 39.417969,16 35,16 C30.580078,16 27,12.417969 27,8 C27,3.582031 30.580078,0 35,0 C39.417969,0 43,3.582031 43,8 Z" id="Path" fill="#F9F2CC"></path>
                    <g id="Group" transform="translate(43.000000, 99.000000)" fill="#E0B730">
                        <path d="M84.3573427,9.10842311 C84.0294193,8.14340102 83.3231232,7.35532995 82.4042177,6.93393072 C81.5375637,7.73477157 80.5177583,8.34589161 79.4078644,8.7308056 C78.7646305,8.94241775 78.0997749,9.07923529 77.425911,9.13396268 C77.1466356,9.90014288 77.1268164,10.7374685 77.3718579,11.5145939 L98.8616379,75.4687498 C99.519286,77.4188612 101.61295,78.4623256 103.54085,77.8001269 C105.46875,77.1342799 106.497564,75.0145145 105.843519,73.0625794 L84.3573427,9.10842311 Z" id="Path"></path>
                        <path d="M60.7901149,13.282281 C62.7180148,12.6182581 64.8134802,13.6617226 65.4711282,15.6154822 L86.959107,79.567814 C87.6167551,81.5215736 86.5843376,83.6431632 84.6564373,84.307186 C82.7285374,84.9712089 80.633072,83.9259203 79.9754239,81.9721606 L58.4874451,18.021653 C57.829797,16.0678934 58.8622145,13.9463038 60.7901149,13.282281 L60.7901149,13.282281 Z" id="Path"></path>
                        <path d="M98.5625434,0.268163188 C100.490443,-0.395859655 102.585909,0.647604812 103.241755,2.60136398 L124.729733,66.5536962 C125.38558,68.5074554 124.354964,70.6290449 122.425262,71.2930678 C120.497362,71.9589152 118.401897,70.9136262 117.746051,68.9598665 L96.258072,5.00753478 C95.6022256,3.05377515 96.634643,0.93218603 98.5625434,0.268163188 L98.5625434,0.268163188 Z" id="Path"></path>
                        <path d="M20.158268,84.0609137 L31.6535978,17.5199873 C32.0049442,15.4877853 33.9184299,14.1269036 35.9256084,14.4826302 L35.9292117,14.4844543 C37.9363902,14.840181 39.2787131,16.775698 38.9273667,18.8079 L27.4320369,85.3488259 C27.080691,87.3810279 25.1690065,88.7400855 23.1600268,88.3843589 L23.156423,88.3843589 C21.1492445,88.0286327 19.8069216,86.0931152 20.158268,84.0609137 Z" id="Path"></path>
                        <path d="M39.7687961,87.5671 L45.7254668,50.9929409 C46.0569935,48.9570906 47.9542638,47.5779663 49.9632435,47.9136262 C51.9740258,48.2492861 53.3343662,50.1720337 53.0028395,52.207884 L47.0479705,88.7820431 C46.7164437,90.8178934 44.8173718,92.1970178 42.8083921,91.8613579 C40.7994119,91.525698 39.4372694,89.6029507 39.7687961,87.5671 Z" id="Path"></path>
                        <path d="M0.506298893,80.5766178 L11.9980254,14.0393401 C12.3493718,12.0071386 14.2610558,10.6462563 16.2682339,11.001983 L16.2718376,11.001983 C18.2808173,11.3577092 19.6231407,13.2932266 19.2717943,15.3272523 L7.78006827,81.8645305 C7.42872186,83.8967325 5.51703782,85.2557901 3.50985932,84.9018876 L3.50625554,84.9000635 C1.49727583,84.5443368 0.154952952,82.6088198 0.506298893,80.5766178 Z" id="Path"></path>
                    </g>
                    <path d="M101.159786,204 C101.055423,204 100.95106,203.991195 100.850296,203.975347 L25.5379058,191.58017 C25.0538764,191.500928 24.6238287,191.236789 24.3413287,190.845862 C24.0570289,190.454937 23.9436688,189.970681 24.0264398,189.498752 C24.2153729,188.528481 25.1510423,187.876937 26.1496896,188.019572 L101.465678,200.418271 C102.408545,200.574994 103.074309,201.413196 102.993338,202.346488 C102.914166,203.281541 102.117048,204 101.159786,204 L101.159786,204 Z" id="Path" fill="#CCCCCC"></path>
                    <path d="M115.84749,199.999967 C114.945373,200.005259 114.172387,199.36498 114.025323,198.490108 C113.876464,197.615237 114.396571,196.763296 115.252057,196.481079 L187.566617,172.097561 C188.526124,171.774775 189.571718,172.279238 189.899923,173.2229 C190.229922,174.168325 189.716989,175.194888 188.755689,175.519437 L116.444715,199.902955 C116.252814,199.966455 116.050152,199.999967 115.84749,199.999967 L115.84749,199.999967 Z" id="Path" fill="#CCCCCC"></path>
                    <path d="M79.1863879,89.2926943 C78.893872,91.5456394 78.9459146,93.8310008 79.3407211,96.0695386 C79.5291518,97.1753008 80.1052102,96.9753991 80.9468657,96.735877 C82.9837084,96.1541817 84.9900429,95.3563761 87.0250911,94.6594218 C88.947081,94.0038886 91.0359658,95.0340122 91.6891915,96.9609918 L94.0059874,103.795465 C95.3608916,108.096051 99.7109412,110.692971 104.123801,109.837536 C106.4729,109.297261 108.486413,107.784492 109.661859,105.670218 C110.835511,103.557745 111.063422,101.043666 110.286371,98.7529021 L111.958915,103.685609 C113.313819,107.982593 117.662074,110.579513 122.073139,109.725879 C124.424033,109.187406 126.435751,107.672836 127.611198,105.560362 C128.786644,103.447888 129.01635,100.933811 128.241094,98.6430464 L123.935908,85.9519967 C123.284477,84.0232164 124.312769,81.9305526 126.232964,81.2750194 L155,71.4528277 C152.184312,63.132599 144.849884,57.1805741 136.153374,56.155853 C127.456864,55.1311323 118.948784,59.2192098 114.288273,66.6587909 C107.303788,65.3027018 100.215217,68.4597062 96.5345433,74.5702121 C87.8380335,74.2658571 80.3313264,80.6374956 79.1863879,89.2926943 L79.1863879,89.2926943 Z" id="Path" fill="#F9F2CC"></path>
                </g>
            </g>
        </g>
    </g>
</svg>