<?xml version="1.0" encoding="UTF-8"?>
<svg width="116px" height="149px" viewBox="0 0 116 149" version="1.1" xmlns="http://www.w3.org/2000/svg" xmlns:xlink="http://www.w3.org/1999/xlink">
    <!-- Generator: Sketch 53.2 (72643) - https://sketchapp.com -->
    <title>Group 3</title>
    <desc>Created with Sketch.</desc>
    <defs>
        <path d="M-5.36854511e-15,1.99375984 C-5.36854511e-15,0.892636686 0.900937147,0 2.00411131,0 L80.729222,0 C81.8360621,0 82.7333333,0.896956 82.7333333,1.99375984 L82.7333333,113.485075 L-5.36854511e-15,113.485075 L-5.36854511e-15,1.99375984 Z" id="path-1"></path>
        <filter x="-1.8%" y="-1.3%" width="103.6%" height="105.3%" filterUnits="objectBoundingBox" id="filter-3">
            <feOffset dx="0" dy="3" in="SourceAlpha" result="shadowOffsetOuter1"></feOffset>
            <feColorMatrix values="0 0 0 0 0.168627451   0 0 0 0 0.180392157   0 0 0 0 0.290196078  0 0 0 1 0" type="matrix" in="shadowOffsetOuter1"></feColorMatrix>
        </filter>
        <rect id="path-4" x="0" y="-2.84217094e-14" width="32.8376068" height="129.843284"></rect>
        <path d="M-6.06329801e-15,1.99375984 C-6.06329801e-15,0.892636686 0.894844296,0 1.99485576,0 L91.4451442,0 C92.5468727,0 93.44,0.896956 93.44,1.99375984 L93.44,113.485075 L-6.06329801e-15,113.485075 L-6.06329801e-15,1.99375984 Z" id="path-6"></path>
        <filter x="-1.6%" y="-1.3%" width="103.2%" height="105.3%" filterUnits="objectBoundingBox" id="filter-8">
            <feOffset dx="0" dy="3" in="SourceAlpha" result="shadowOffsetOuter1"></feOffset>
            <feColorMatrix values="0 0 0 0 0.168627451   0 0 0 0 0.180392157   0 0 0 0 0.290196078  0 0 0 1 0" type="matrix" in="shadowOffsetOuter1"></feColorMatrix>
        </filter>
        <rect id="path-9" x="0" y="-2.84217094e-14" width="37.0871795" height="129.843284"></rect>
        <path d="M-6.6317322e-15,1.99375984 C-6.6317322e-15,0.892636686 0.899068717,0 1.99565877,0 L100.204341,0 C101.306513,0 102.2,0.896956 102.2,1.99375984 L102.2,113.485075 L-6.6317322e-15,113.485075 L-6.6317322e-15,1.99375984 Z" id="path-11"></path>
        <filter x="-1.5%" y="-1.3%" width="102.9%" height="105.3%" filterUnits="objectBoundingBox" id="filter-13">
            <feOffset dx="0" dy="3" in="SourceAlpha" result="shadowOffsetOuter1"></feOffset>
            <feColorMatrix values="0 0 0 0 0.168627451   0 0 0 0 0.180392157   0 0 0 0 0.290196078  0 0 0 1 0" type="matrix" in="shadowOffsetOuter1"></feColorMatrix>
        </filter>
        <rect id="path-14" x="0" y="-2.84217094e-14" width="40.5641026" height="129.843284"></rect>
        <path d="M7.28474693e-15,1.99456514 C7.28474693e-15,0.892997232 0.903658283,0 1.99618846,0 L110.267262,0 C111.369726,0 112.26345,0.897318292 112.26345,1.99456514 L112.26345,113.530913 L7.28474693e-15,113.530913 L7.28474693e-15,1.99456514 Z" id="path-16"></path>
        <filter x="-1.3%" y="-1.3%" width="102.7%" height="105.3%" filterUnits="objectBoundingBox" id="filter-18">
            <feOffset dx="0" dy="3" in="SourceAlpha" result="shadowOffsetOuter1"></feOffset>
            <feColorMatrix values="0 0 0 0 0.168627451   0 0 0 0 0.180392157   0 0 0 0 0.290196078  0 0 0 1 0" type="matrix" in="shadowOffsetOuter1"></feColorMatrix>
        </filter>
    </defs>
    <g id="App" stroke="none" stroke-width="1" fill="none" fill-rule="evenodd">
        <g id="login-8" transform="translate(-129.000000, -109.000000)">
            <g id="Group-3" transform="translate(129.000000, 109.000000)">
                <g id="Group">
                    <g id="//card-3" transform="translate(16.000000, 0.000000)">
                        <g id="/bg" fill="#FFFFFF" stroke="#2B2E4A" stroke-width="3">
                            <rect id="card" x="1.5" y="1.5" width="82" height="134" rx="4"></rect>
                        </g>
                        <g id="/bottle" transform="translate(1.133333, 1.533582)">
                            <mask id="mask-2" fill="white">
                                <use xlink:href="#path-1"></use>
                            </mask>
                            <g id="mask">
                                <use fill="black" fill-opacity="1" filter="url(#filter-3)" xlink:href="#path-1"></use>
                                <use fill="#FAFAFA" fill-rule="evenodd" xlink:href="#path-1"></use>
                            </g>
                            <g id="::bottle-1" mask="url(#mask-2)">
                                <g transform="translate(8.308241, 8.645915)">
                                    <path d="M45.6993832,52.5662033 C45.7071571,52.7274439 45.7111111,52.8902391 45.7111111,53.0543871 L45.7991839,111.408275 C45.7991839,112.892743 44.9879381,114.096143 43.9927911,114.096143 L21.9166877,114.096143 C20.9190446,114.096143 20.110295,112.888563 20.110295,111.408275 L20.0222222,53.0543871 C20.0222222,52.8894754 20.0261974,52.7259503 20.0340125,52.5640139 C20.2516027,44.9303316 23.4604316,38.4523242 27.9558906,35.6740459 L28.5476283,6.64552239 L37.185705,6.64552239 L37.7774427,35.6740459 C42.2733315,38.4525898 45.4823441,44.9315703 45.6993832,52.5662033 Z" id="shape" stroke-opacity="0.9" stroke="#2B2E4A" stroke-width="3" fill="#F4F4F6"></path>
                                    <polygon id="label" stroke="#40425C" stroke-width="3" fill="#BFC0C8" points="45.7111111 53.6753731 45.7111111 88.4365672 20.0222222 88.4365672 20.0222222 53.6753731"></polygon>
                                    <path d="M35.5984142,1.53358209 C38.3305571,1.53358206 38.5333333,6.64552239 38.5333333,6.64552239 L27.2,6.64552239 C27.2,6.64552239 27.7336964,1.53358207 29.5410553,1.53358209 C31.3484142,1.53358211 32.8662714,1.53358213 35.5984142,1.53358209 Z" id="cap" stroke="#40425C" stroke-width="3" fill-opacity="0.3" fill="#2B2E4A"></path>
                                    <g id="::shadow" opacity="0.1" stroke="none" stroke-width="1" fill="none" transform="translate(0.000000, -0.000000)">
                                        <mask id="mask-5" fill="white">
                                            <use xlink:href="#path-4"></use>
                                        </mask>
                                        <g id="Mask"></g>
                                        <path d="M39.0189454,32.970885 C43.9468183,35.6857329 47.4206298,42.2315169 47.4206298,49.8751906 C47.4206298,52.1502807 47.112879,54.3281069 46.5506357,56.3366022 L46.2424471,120.442433 C46.2318276,122.651393 44.425159,124.442109 42.2216526,124.442109 L24.0651203,124.442109 C21.8551163,124.442109 20.0721938,122.644997 20.0827826,120.442433 L20.4312751,47.953037 C20.4340311,47.3797562 20.5325853,46.8289839 20.7117623,46.3160364 C21.5174251,40.8029855 24.1586265,36.1828857 27.7377996,33.6702894 L27.6320926,3.37828225 L28.7392339,0.51119403 L38.3311109,0.51119403 L39.018945,32.970882 Z" id="shape" fill="#202338" mask="url(#mask-5)"></path>
                                    </g>
                                </g>
                            </g>
                        </g>
                        <g id="/copy" transform="translate(6.800000, 124.220149)" fill="#BFC0C8">
                            <rect id="line" x="0" y="0" width="58.9333333" height="4.08955224"></rect>
                        </g>
                        <g id="/flare-inner" transform="translate(9.577778, 6.288808)">
                            <text id="+" transform="translate(5.832797, 83.324713) rotate(-18.000000) translate(-5.832797, -83.324713) " font-family="Chalkboard-Bold, Chalkboard" font-size="13.6666667" font-weight="bold" fill="#2B2E4A">
                                <tspan x="3.77219059" y="89.2341042">+</tspan>
                            </text>
                            <text id="+" transform="translate(51.166130, 30.671728) rotate(-18.000000) translate(-51.166130, -30.671728) " font-family="Chalkboard-Bold, Chalkboard" font-size="13.6666667" font-weight="bold" fill="#2B2E4A">
                                <tspan x="49.1055239" y="36.5811192">+</tspan>
                            </text>
                            <text id="+" transform="translate(15.275562, 12.146197) rotate(-324.000000) translate(-15.275562, -12.146197) " font-family="Chalkboard-Bold, Chalkboard" font-size="16.4" font-weight="bold" fill="#2B2E4A">
                                <tspan x="12.6998046" y="19.5374664">+</tspan>
                            </text>
                            <ellipse id="big-dot" stroke="#2B2E4A" stroke-width="2" cx="2.29048885" cy="45.1518207" rx="1" ry="1.27798507"></ellipse>
                            <ellipse id="big-dot" stroke="#2B2E4A" stroke-width="2" cx="64.2460444" cy="8.34585054" rx="1.32222222" ry="1.7891791"></ellipse>
                            <ellipse id="sm-dot" fill="#2B2E4A" cx="60.0426931" cy="74.4446213" rx="1" ry="1.02238806"></ellipse>
                        </g>
                        <rect id="cover" fill="#FFFFFF" opacity="0.8" x="0" y="0" width="85" height="137" rx="3"></rect>
                    </g>
                    <g id="//card-3" transform="translate(11.000000, 6.000000)">
                        <g id="/bg" fill="#FFFFFF" stroke="#2B2E4A" stroke-width="3">
                            <rect id="card" x="1.5" y="1.5" width="93" height="134" rx="4"></rect>
                        </g>
                        <g id="/bottle" transform="translate(1.280000, 1.533582)">
                            <mask id="mask-7" fill="white">
                                <use xlink:href="#path-6"></use>
                            </mask>
                            <g id="mask">
                                <use fill="black" fill-opacity="1" filter="url(#filter-8)" xlink:href="#path-6"></use>
                                <use fill="#FAFAFA" fill-rule="evenodd" xlink:href="#path-6"></use>
                            </g>
                            <g id="::bottle-1" mask="url(#mask-7)">
                                <g transform="translate(9.383426, 8.645915)">
                                    <path d="M51.613421,52.5662033 C51.6222009,52.7274439 51.6266667,52.8902391 51.6266667,53.0543871 L51.7261371,111.408275 C51.7261371,112.892743 50.8099066,114.096143 49.6859758,114.096143 L24.752965,114.096143 C23.626215,114.096143 22.7128037,112.888563 22.7128037,111.408275 L22.6133333,53.0543871 C22.6133333,52.8894754 22.6178229,52.7259503 22.6266494,52.5640139 C22.8723984,44.9303316 26.4964875,38.4523242 31.5737117,35.6740459 L32.2420273,6.64552239 L41.9979727,6.64552239 L42.6662883,35.6740459 C47.7439979,38.4525898 51.3682945,44.9315703 51.613421,52.5662033 Z" id="shape" stroke-opacity="0.9" stroke="#2B2E4A" stroke-width="3" fill="#F4F4F6"></path>
                                    <polygon id="label" stroke="#40425C" stroke-width="3" fill="#BFC0C8" points="51.6266667 53.6753731 51.6266667 88.4365672 22.6133333 88.4365672 22.6133333 53.6753731"></polygon>
                                    <path d="M40.2052679,1.53358209 C43.2909821,1.53358206 43.52,6.64552239 43.52,6.64552239 L30.72,6.64552239 C30.72,6.64552239 31.322763,1.53358207 33.3640154,1.53358209 C35.4052679,1.53358211 37.1195536,1.53358213 40.2052679,1.53358209 Z" id="cap" stroke="#40425C" stroke-width="3" fill-opacity="0.3" fill="#2B2E4A"></path>
                                    <g id="::shadow" opacity="0.1" stroke="none" stroke-width="1" fill="none" transform="translate(0.000000, -0.000000)">
                                        <mask id="mask-10" fill="white">
                                            <use xlink:href="#path-9"></use>
                                        </mask>
                                        <g id="Mask"></g>
                                        <path d="M44.068456,32.970885 C49.6340536,35.6857329 53.5574171,42.2315169 53.5574171,49.8751906 C53.5574171,52.1502807 53.2098398,54.3281069 52.5748356,56.3366022 L52.2267638,120.442433 C52.2147699,122.651393 50.4234083,124.442109 48.2051098,124.442109 L26.6599513,124.442109 C24.450847,124.442109 22.6697718,122.644997 22.6817309,120.442433 L23.0753225,47.953037 C23.0787755,47.3170736 23.200875,46.70881 23.4203311,46.1491559 C24.3624376,40.7098133 27.3258917,36.1574917 31.3273972,33.6702894 L31.2080104,3.37828225 L32.4584289,0.51119403 L43.2916076,0.51119403 L44.0684555,32.970882 Z" id="shape" fill="#202338" mask="url(#mask-10)"></path>
                                    </g>
                                </g>
                            </g>
                        </g>
                        <g id="/copy" transform="translate(7.680000, 124.220149)" fill="#BFC0C8">
                            <rect id="line" x="0" y="0" width="66.56" height="4.08955224"></rect>
                        </g>
                        <g id="/flare-inner" transform="translate(11.946667, 6.288808)">
                            <text id="+" transform="translate(5.206620, 83.324713) rotate(-18.000000) translate(-5.206620, -83.324713) " font-family="Chalkboard-Bold, Chalkboard" font-size="13.6666667" font-weight="bold" fill="#2B2E4A">
                                <tspan x="3.13094466" y="89.2341042">+</tspan>
                            </text>
                            <text id="+" transform="translate(56.406620, 30.671728) rotate(-18.000000) translate(-56.406620, -30.671728) " font-family="Chalkboard-Bold, Chalkboard" font-size="13.6666667" font-weight="bold" fill="#2B2E4A">
                                <tspan x="54.3309447" y="36.5811192">+</tspan>
                            </text>
                            <text id="+" transform="translate(15.808492, 12.146197) rotate(-324.000000) translate(-15.808492, -12.146197) " font-family="Chalkboard-Bold, Chalkboard" font-size="16.4" font-weight="bold" fill="#2B2E4A">
                                <tspan x="13.213897" y="19.5374664">+</tspan>
                            </text>
                            <ellipse id="big-dot" stroke="#2B2E4A" stroke-width="2" cx="1.45749329" cy="45.1518207" rx="1.06666667" ry="1.27798507"></ellipse>
                            <ellipse id="big-dot" stroke="#2B2E4A" stroke-width="2" cx="71.4308266" cy="8.34585054" rx="1.49333333" ry="1.7891791"></ellipse>
                            <ellipse id="sm-dot" fill="#2B2E4A" cx="66.6835122" cy="74.4446213" rx="1" ry="1.02238806"></ellipse>
                        </g>
                        <rect id="cover" fill="#FFFFFF" opacity="0.6" x="0" y="0" width="96" height="137" rx="3"></rect>
                    </g>
                    <g id="//card-2" transform="translate(6.000000, 10.000000)">
                        <g id="/bg" fill="#FFFFFF" stroke="#2B2E4A" stroke-width="3">
                            <rect id="card" x="1.5" y="1.5" width="102" height="134" rx="4"></rect>
                        </g>
                        <g id="/bottle" transform="translate(1.400000, 1.533582)">
                            <mask id="mask-12" fill="white">
                                <use xlink:href="#path-11"></use>
                            </mask>
                            <g id="mask">
                                <use fill="black" fill-opacity="1" filter="url(#filter-13)" xlink:href="#path-11"></use>
                                <use fill="#FAFAFA" fill-rule="evenodd" xlink:href="#path-11"></use>
                            </g>
                            <g id="::bottle-1" mask="url(#mask-12)">
                                <g transform="translate(10.263122, 8.645915)">
                                    <path d="M56.4521792,52.5662033 C56.4617823,52.7274439 56.4666667,52.8902391 56.4666667,53.0543871 L56.5754624,111.408275 C56.5754624,112.892743 55.5733353,114.096143 54.344036,114.096143 L27.0735555,114.096143 C25.8411727,114.096143 24.8421291,112.888563 24.8421291,111.408275 L24.7333333,53.0543871 C24.7333333,52.8894754 24.7382438,52.7259503 24.7478978,52.5640139 C25.0166857,44.9303316 28.9805332,38.4523242 34.5337472,35.6740459 L35.2647173,6.64552239 L45.9352827,6.64552239 L46.6662528,35.6740459 C52.2199977,38.4525898 56.1840722,44.9315703 56.4521792,52.5662033 Z" id="shape" stroke-opacity="0.9" stroke="#2B2E4A" stroke-width="3" fill="#F4F4F6"></path>
                                    <polygon id="label" stroke="#40425C" stroke-width="3" fill="#BFC0C8" points="56.4666667 53.6753731 56.4666667 88.4365672 24.7333333 88.4365672 24.7333333 53.6753731"></polygon>
                                    <path d="M43.9745117,1.53358209 C47.3495117,1.53358206 47.6,6.64552239 47.6,6.64552239 L33.6,6.64552239 C33.6,6.64552239 34.2592721,1.53358207 36.4918919,1.53358209 C38.7245117,1.53358211 40.5995117,1.53358213 43.9745117,1.53358209 Z" id="cap" stroke="#40425C" stroke-width="3" fill-opacity="0.3" fill="#2B2E4A"></path>
                                    <g id="::shadow" opacity="0.1" stroke="none" stroke-width="1" fill="none" transform="translate(0.000000, -0.000000)">
                                        <mask id="mask-15" fill="white">
                                            <use xlink:href="#path-14"></use>
                                        </mask>
                                        <g id="Mask"></g>
                                        <path d="M48.1998737,32.970885 C54.2872462,35.6857329 58.578425,42.2315169 58.578425,49.8751906 C58.578425,52.1502807 58.1982623,54.3281069 57.5037264,56.3366022 L57.1230229,120.442433 C57.1099046,122.651393 55.315852,124.442109 53.1044209,124.442109 L28.7792397,124.442109 C26.5729454,124.442109 24.7950629,122.644997 24.8081432,120.442433 L25.2386339,47.953037 C25.2427358,47.2623341 25.3868793,46.6043046 25.643709,46.0057356 C26.7035619,40.6298365 29.9262163,36.1356 34.2643407,33.6702894 L34.1337614,3.37828225 L35.5014066,0.51119403 L47.3501958,0.51119403 L48.1998732,32.970882 Z" id="shape" fill="#202338" mask="url(#mask-15)"></path>
                                    </g>
                                </g>
                            </g>
                        </g>
                        <g id="/copy" transform="translate(8.400000, 124.220149)" fill="#BFC0C8">
                            <rect id="line" x="0" y="0" width="72.8" height="4.08955224"></rect>
                        </g>
                        <g id="/flare-inner" transform="translate(13.066667, 6.288808)">
                            <text id="+" transform="translate(5.524471, 83.298653) rotate(-18.000000) translate(-5.524471, -83.298653) " font-family="Chalkboard-Bold, Chalkboard" font-size="13.6666667" font-weight="bold" fill="#2B2E4A">
                                <tspan x="3.42447073" y="89.2080434">+</tspan>
                            </text>
                            <text id="+" transform="translate(61.524471, 30.645668) rotate(-18.000000) translate(-61.524471, -30.645668) " font-family="Chalkboard-Bold, Chalkboard" font-size="13.6666667" font-weight="bold" fill="#2B2E4A">
                                <tspan x="59.4244707" y="36.5550583">+</tspan>
                            </text>
                            <text id="+" transform="translate(17.019366, 12.120137) rotate(-324.000000) translate(-17.019366, -12.120137) " font-family="Chalkboard-Bold, Chalkboard" font-size="16.4" font-weight="bold" fill="#2B2E4A">
                                <tspan x="14.4526998" y="19.5114055">+</tspan>
                            </text>
                            <ellipse id="big-dot" stroke="#2B2E4A" stroke-width="2" cx="1.59413329" cy="45.1518207" rx="1.16666667" ry="1.27798507"></ellipse>
                            <ellipse id="big-dot" stroke="#2B2E4A" stroke-width="2" cx="78.1274666" cy="8.34585054" rx="1.63333333" ry="1.7891791"></ellipse>
                            <ellipse id="sm-dot" fill="#2B2E4A" cx="72.9350915" cy="74.4446213" rx="1" ry="1.02238806"></ellipse>
                        </g>
                        <rect id="cover" fill="#FFFFFF" opacity="0.4" x="0" y="0" width="105" height="137" rx="3"></rect>
                    </g>
                    <g id="//card-1" transform="translate(0.000000, 16.000000)">
                        <g id="top" fill="#FFFFFF" stroke="#2B2E4A" stroke-width="2">
                            <path d="M1,3.99852439 L1,129.001476 C1,130.656124 2.34521041,132 4.00372971,132 L111.335431,132 C112.997086,132 114.339161,130.658749 114.339161,129.001476 L114.339161,3.99852439 C114.339161,2.34387562 112.993951,1 111.335431,1 L4.00372971,1 C2.34207552,1 1,2.34125059 1,3.99852439 Z" id="card"></path>
                        </g>
                        <g id="/bottle" transform="translate(1.537855, 1.534202)">
                            <mask id="mask-17" fill="white">
                                <use xlink:href="#path-16"></use>
                            </mask>
                            <g id="mask">
                                <use fill="black" fill-opacity="1" filter="url(#filter-18)" xlink:href="#path-16"></use>
                                <use fill="#FAFAFA" fill-rule="evenodd" xlink:href="#path-16"></use>
                            </g>
                        </g>
                        <g id="/icons" transform="translate(6.151422, 4.602605)" stroke="#2B2E4A" stroke-width="2">
                            <path d="M7.72487976,5.02538586 C8.27143987,5.07842767 8.40431696,5.43888284 8.01544044,5.83685935 L6.34175057,7.5497148 L6.85906927,10.1600709 C6.96649442,10.7021312 6.68994166,10.8857065 6.2299431,10.562057 L4.35725719,9.24445764 L2.48457129,10.562057 C2.02968935,10.8821065 1.7482189,10.7011274 1.85544512,10.1600709 L2.37276382,7.5497148 L0.699073947,5.83685935 C0.312986067,5.44173673 0.448128041,5.07793725 0.989634625,5.02538586 L3.12773412,4.81789053 L4.01476647,2.37256558 C4.20391887,1.85112001 4.50802086,1.84402233 4.69974792,2.37256558 L5.58678026,4.81789053 L7.72487976,5.02538586 Z" id="star"></path>
                            <g id="::amount" transform="translate(98.422751, 0.000000)" stroke-opacity="0.9">
                                <path d="M3.57443651,5.69142962 C3.57551869,5.70991816 3.57606913,5.72858497 3.57606913,5.74740688 L3.58832945,11.2957912 C3.58832945,11.4660068 3.4753985,11.6039937 3.33686722,11.6039937 L0.263722565,11.6039937 C0.124843807,11.6039937 0.0122603284,11.4655274 0.0122603284,11.2957912 L-1.75157395e-17,5.74740688 C-1.75157395e-17,5.72849739 0.000553366876,5.7097469 0.00164128749,5.69117858 C0.0319313364,4.81586768 0.478622274,4.07307143 1.02523699,3.42817164 L1.02523699,0.991569279 C1.02523699,0.443940688 1.47832663,0 2.02522525,0 L1.56310421,0 C2.11538247,0 2.56309247,0.448173574 2.56309247,0.991569279 L2.56309247,3.42817164 C3.09750668,4.07310189 3.5442232,4.8160097 3.57443651,5.69142962 Z" id="bottle"></path>
                            </g>
                        </g>
                    </g>
                </g>
                <g id="Group-2" transform="translate(18.000000, 40.000000)" fill-rule="nonzero">
                    <g id="001-beer">
                        <path d="M34.3006466,71.6951778 C34.3733836,72.5996767 34.0979257,73.4981141 33.5308459,74.2066272 L30.6893859,77.7586207 C30.3580279,78.1728179 30.2933728,78.7398976 30.5230334,79.2180766 C30.752694,79.6962553 31.2362607,80 31.7669721,80 L56.370959,80 C56.9016703,80 57.3852371,79.6962553 57.6148976,79.2180766 C57.8445583,78.7398976 57.7799031,78.1728179 57.4485452,77.7586207 L54.6070852,74.2066272 C54.0400053,73.4981141 53.7645474,72.5996767 53.8372845,71.6951778 L60.4691541,5.65530707 C60.5075431,5.2687231 60.3816002,4.88348603 60.1216326,4.59455828 C59.8616648,4.30563034 59.4919181,4.13995155 59.1033136,4.13793103 L45.4482759,4.13793103 L45.4482759,8.12836741 C45.4792566,9.51441276 44.5121228,10.7226562 43.1530172,10.9974407 C42.3515624,11.1341595 41.5305766,10.9098869 40.9096174,10.3852371 C40.2886584,9.86058724 39.930361,9.08876621 39.9310345,8.27586207 L39.9310345,12.2662984 C39.9620152,13.6523438 38.9948814,14.8605872 37.6357759,15.1353717 C36.834321,15.2720905 36.0133352,15.0478179 35.392376,14.5231681 C34.7714171,13.9985183 34.4131197,13.2266972 34.4137931,12.4137931 L34.4137931,4.13793103 L29.0346174,4.13793103 C28.6446659,4.13793103 28.2728986,4.30293638 28.0115841,4.59186414 C27.7502693,4.88079207 27.6229795,5.26737603 27.6620421,5.65530707 L34.3006466,71.6951778 Z" id="Path" fill="#E2E2E2"></path>
                        <path d="M31.6551724,6.89655172 L56.4827586,6.89655172 L51.5629041,63.4745421 C51.2248114,67.3619343 47.970501,70.3448276 44.0689655,70.3448276 C40.16743,70.3448276 36.9131197,67.3619343 36.5750269,63.4745421 L31.6551724,6.89655172 Z" id="Path" fill="#F4C734"></path>
                        <path d="M42.6896552,0 C41.0853986,0.00202048276 39.6279634,0.934132586 38.9517779,2.38887397 C37.7314117,0.609509655 35.5823007,-0.291621724 33.4574353,0.0855334483 C31.3332434,0.462015172 29.6252693,2.04741379 29.0911907,4.13793103 L34.4137931,4.13793103 L34.4137931,12.4137931 C34.4137931,13.9372307 35.6489762,15.1724138 37.1724138,15.1724138 C38.6958514,15.1724138 39.9310345,13.9372307 39.9310345,12.4137931 L39.9310345,8.27586207 C39.9310345,9.79929966 41.1662176,11.0344828 42.6896552,11.0344828 C44.2130928,11.0344828 45.4482759,9.79929966 45.4482759,8.27586207 L45.4482759,4.13793103 L46.8275862,4.13793103 C46.8275862,1.85277483 44.9748114,0 42.6896552,0 Z" id="Path" fill="#F9F2CC"></path>
                        <path d="M55.1034483,0 L50.9655172,0 C48.680361,0 46.8275862,1.85277483 46.8275862,4.13793103 L59.2413793,4.13793103 C59.2413793,1.85277483 57.3886045,0 55.1034483,0 Z" id="Path" fill="#F9F2CC"></path>
                        <path d="M2.93103448,80 L25,80 C26.5234376,80 27.7586207,78.7648169 27.7586207,77.2413793 L27.7586207,73.1034483 L0.172413793,73.1034483 L0.172413793,77.2413793 C0.172413793,78.7648169 1.4075969,80 2.93103448,80 Z" id="Path" fill="#A3740C"></path>
                        <path d="M23.6604257,26.995555 L23.5809536,26.7975484 C20.8735183,20.0289602 19.4827586,12.8064386 19.4827586,5.51724138 L8.44827586,5.51724138 C8.44827586,12.8064386 7.05751621,20.0289602 4.35008086,26.7975484 L4.27060879,26.995555 C1.90800103,32.9034214 0.546201552,39.1621767 0.239762931,45.5172414 L27.6885776,45.5172414 C27.383486,39.1628502 26.02236,32.9034214 23.6604257,26.995555 Z" id="Path" fill="#A3740C"></path>
                        <g id="Group" transform="translate(0.000000, 45.517241)" fill="#F4C734">
                            <path d="M27.7586207,0 L27.6912716,0 C27.7363955,0.91931569 27.7586207,1.839305 27.7586207,2.75862069 L27.7586207,0 Z" id="Path"></path>
                            <path d="M0.172413793,0 L0.172413793,2.75862069 C0.172413793,1.839305 0.194638966,0.91931569 0.239762931,0 L0.172413793,0 Z" id="Path"></path>
                            <path d="M27.7586207,2.75862069 C27.7586207,1.839305 27.7363955,0.91931569 27.6912716,0 L0.239762931,0 C0.194638966,0.91931569 0.172413793,1.839305 0.172413793,2.75862069 L0.172413793,27.5862069 L27.7586207,27.5862069 L27.7586207,2.75862069 Z" id="Path"></path>
                        </g>
                        <path d="M13.9655172,51.0344828 C9.39520483,51.0344828 5.68965517,54.7400324 5.68965517,59.3103448 C5.68965517,63.8806572 9.39520483,67.5862069 13.9655172,67.5862069 C18.5358297,67.5862069 22.2413793,63.8806572 22.2413793,59.3103448 C22.2366648,54.7413793 18.5344828,51.0391972 13.9655172,51.0344828 Z M13.9655172,64.8275862 C10.9186422,64.8275862 8.44827586,62.3572198 8.44827586,59.3103448 C8.44827586,56.2634698 10.9186422,53.7931034 13.9655172,53.7931034 C17.0123922,53.7931034 19.4827586,56.2634698 19.4827586,59.3103448 C19.4827586,62.3572198 17.0123922,64.8275862 13.9655172,64.8275862 Z" id="Shape" fill="#F49E34"></path>
                        <path d="M38.5517241,71.7241379 L49.5862069,71.7241379 C50.3479257,71.7241379 50.9655172,72.3417295 50.9655172,73.1034483 C50.9655172,73.8651671 50.3479257,74.4827586 49.5862069,74.4827586 L38.5517241,74.4827586 C37.7900053,74.4827586 37.1724138,73.8651671 37.1724138,73.1034483 C37.1724138,72.3417295 37.7900053,71.7241379 38.5517241,71.7241379 Z" id="Path" fill="#CCCCCC"></path>
                        <path d="M49.5875538,23.3714979 L50.127694,13.6557112 C50.1694503,12.8946659 50.8207166,12.3127693 51.5810883,12.3545259 C52.3414602,12.3969559 52.9240302,13.0482221 52.8816002,13.8085938 L52.3421336,23.5243803 C52.2997036,24.2854257 51.649111,24.8673222 50.8880657,24.8255657 C50.127694,24.7831359 49.545124,24.1318697 49.5875538,23.3714979 Z" id="Path" fill="#F9F2CC"></path>
                        <path d="M50.9655172,26.2068966 C51.727236,26.2068966 52.3448276,26.8244881 52.3448276,27.5862069 C52.3448276,28.3479257 51.727236,28.9655172 50.9655172,28.9655172 C50.2037984,28.9655172 49.5862069,28.3479257 49.5862069,27.5862069 C49.5862069,26.8244881 50.2037984,26.2068966 50.9655172,26.2068966 Z" id="Path" fill="#F9F2CC"></path>
                        <path d="M19.53125,7.55724672 C19.5076778,6.87702052 19.4827586,6.19881466 19.4827586,5.51724138 L8.44827586,5.51724138 C8.44288793,7.74043638 8.30818966,9.96093759 8.04552793,12.1679688 L19.53125,7.55724672 Z" id="Path" fill="#855E0A"></path>
                        <path d="M13.9655172,46.8965517 C7.109375,46.8965517 1.55172414,52.4542026 1.55172414,59.3103448 C1.55172414,66.1664871 7.109375,71.7241379 13.9655172,71.7241379 C20.8216595,71.7241379 26.3793103,66.1664871 26.3793103,59.3103448 C26.3719019,52.45757 20.8182921,46.9039602 13.9655172,46.8965517 Z M13.9655172,67.5862069 C9.39520483,67.5862069 5.68965517,63.8806572 5.68965517,59.3103448 C5.68965517,54.7400324 9.39520483,51.0344828 13.9655172,51.0344828 C18.5358297,51.0344828 22.2413793,54.7400324 22.2413793,59.3103448 C22.2359914,63.8786369 18.5338093,67.580819 13.9655172,67.5862069 Z" id="Shape" fill="#F9F2CC"></path>
                        <path d="M8.44827586,0 L19.4827586,0 C20.2444774,0 20.862069,0.617591552 20.862069,1.37931034 L20.862069,4.13793103 C20.862069,4.89964983 20.2444774,5.51724138 19.4827586,5.51724138 L8.44827586,5.51724138 C7.68655707,5.51724138 7.06896552,4.89964983 7.06896552,4.13793103 L7.06896552,1.37931034 C7.06896552,0.617591552 7.68655707,0 8.44827586,0 Z" id="Path" fill="#E2E2E2"></path>
                        <path d="M7.06896552,4.13793103 C7.06896552,4.89964983 7.68655707,5.51724138 8.44827586,5.51724138 L19.4827586,5.51724138 C20.2444774,5.51724138 20.862069,4.89964983 20.862069,4.13793103 L7.06896552,4.13793103 Z" id="Path" fill="#CCCCCC"></path>
                    </g>
                    <path d="M84.9677419,40.483871 C84.9677419,49.0352823 78.0352823,55.9677419 69.483871,55.9677419 C60.9324596,55.9677419 54,49.0352823 54,40.483871 C54,31.9324596 60.9324596,25 69.483871,25 C78.0352823,25 84.9677419,31.9324596 84.9677419,40.483871 Z" id="Path" fill="#A3740C"></path>
                    <path d="M66.1103831,47.1809476 C67.6365928,48.1990928 69.4299395,48.7419355 71.2646169,48.7419355 L77.6315524,48.7419355 C78.6688508,48.765121 79.5730846,48.0413306 79.7787298,47.0241935 C79.8810484,46.4243951 79.7132057,45.8099799 79.3205645,45.3452621 C78.9279234,44.8805444 78.3503025,44.6123992 77.7419355,44.6129032 C78.8820565,44.6129032 79.8064516,43.6885081 79.8064516,42.5483871 C79.8064516,41.4082661 78.8820565,40.483871 77.7419355,40.483871 C78.3503025,40.484375 78.9279234,40.2162298 79.3205645,39.7515121 C79.7132057,39.2867943 79.8810484,38.6723791 79.7787298,38.0725806 C79.5730846,37.0554436 78.6688508,36.3316532 77.6315524,36.3548387 L75.1612903,36.3548387 C73.7358871,36.3548387 72.5806452,35.1995968 72.5806452,33.7741935 L72.5806452,32.2258065 C72.5811492,30.4561492 71.453629,28.8830645 69.7782258,28.3145161 C69.4657258,28.2177419 69.125504,28.2762097 68.8634072,28.4717742 C68.6013105,28.6673387 68.4480846,28.9763105 68.4516129,29.3034274 L68.4516129,35.3225806 C68.4516129,36.7903226 67.8830645,37.578125 67.0403226,37.858871 L66.0609879,38.1849799 C65.6391129,38.3256049 65.3548387,38.7202621 65.3548387,39.1648186 L65.3548387,46.126008 C65.3548387,46.4712702 65.5272178,46.7933468 65.8140121,46.984879 L66.1103831,47.1809476 Z" id="Path" fill="#F9F2CC"></path>
                    <path d="M61.2258065,37.3870968 L63.2903226,37.3870968 C63.8603831,37.3870968 64.3225806,37.8492943 64.3225806,38.4193548 L64.3225806,46.6774194 C64.3225806,47.2474799 63.8603831,47.7096774 63.2903226,47.7096774 L61.2258065,47.7096774 C60.6557459,47.7096774 60.1935484,47.2474799 60.1935484,46.6774194 L60.1935484,38.4193548 C60.1935484,37.8492943 60.6557459,37.3870968 61.2258065,37.3870968 Z" id="Path" fill="#F9F2CC"></path>
                </g>
            </g>
        </g>
    </g>
</svg>