<?xml version="1.0" encoding="UTF-8"?>
<svg width="60px" height="60px" viewBox="0 0 60 60" version="1.1" xmlns="http://www.w3.org/2000/svg" xmlns:xlink="http://www.w3.org/1999/xlink">
    <!-- Generator: Sketch 53.2 (72643) - https://sketchapp.com -->
    <title>006-signage</title>
    <desc>Created with Sketch.</desc>
    <g id="App" stroke="none" stroke-width="1" fill="none" fill-rule="evenodd">
        <g id="home" transform="translate(-70.000000, -357.000000)" fill-rule="nonzero">
            <g id="006-signage" transform="translate(70.000000, 357.000000)">
                <path d="M58.7556729,14.0673625 L48.8560036,14.0673625 C50.2408583,13.4230744 51.5498574,12.6270747 52.7596603,11.693951 L54.5729059,10.2828385 C56.4877788,8.79441137 57.2453644,6.25372793 56.4581172,3.95957602 C55.67087,1.66542398 53.5128696,0.124967583 51.0874287,0.125453838 C47.623833,0.128857618 44.817168,2.93552253 44.8137642,6.39911826 L44.8137642,7.09640813 L46.8054655,7.09640813 L46.8054655,6.39911826 C46.8054655,4.03445925 48.7227697,2.11715502 51.0874287,2.11715502 C52.6624093,2.11618257 54.0637967,3.11640946 54.5748509,4.60580913 C55.0859051,6.09569502 54.5938148,7.74555884 53.3499741,8.71174793 L51.5357559,10.1228604 C48.2438084,12.6737552 44.1986515,14.0610412 40.0333895,14.0673625 C35.0633752,14.081464 30.2936981,12.1062954 26.7887707,8.58191776 L21.3115923,3.09793183 C18.7738265,0.558707178 15.0826633,-0.450272365 11.6059388,0.444923527 C8.1297005,1.34060552 5.38527622,4.00722896 4.38991183,7.45672332 C3.47332083,6.58827149 2.25914166,6.10298888 0.996336846,6.10055751 C0.446382324,6.10055751 0.000486255187,6.54645361 0.000486255187,7.09640813 L0.000486255187,25.0217193 C0.000486255187,25.571674 0.446382324,26.01757 0.996336846,26.01757 C3.74465116,26.0141663 5.97218614,23.7866313 5.97558996,21.0383168 L5.97558996,20.0424662 L12.9465443,20.0424662 L12.9465443,24.0258687 L8.96314183,24.0258687 C8.4131873,24.0258687 7.9672912,24.4717648 7.9672912,25.0217193 L7.9672912,58.8806405 C7.9672912,59.4305951 8.4131873,59.8764911 8.96314183,59.8764911 L56.7639717,59.8764911 C57.3139263,59.8764911 57.7598223,59.4305951 57.7598223,58.8806405 L57.7598223,25.0217193 C57.7598223,24.4717648 57.3139263,24.0258687 56.7639717,24.0258687 L53.7764198,24.0258687 L53.7764198,20.0424662 L58.7556729,20.0424662 C59.3056276,20.0424662 59.7515236,19.5965702 59.7515236,19.0466156 L59.7515236,15.0632131 C59.7515236,14.5132586 59.3056276,14.0673625 58.7556729,14.0673625 Z M5.97558996,11.0798106 L5.97558996,10.2750584 C5.97656253,6.97581685 7.96437373,4.00188025 11.0127075,2.73956166 C14.060555,1.47724332 17.5688862,2.1745332 19.9024247,4.50709929 L25.386897,9.99108535 C27.07712,11.6754733 29.0459674,13.054493 31.2063991,14.0673625 L5.97558996,14.0673625 L5.97558996,11.0798106 Z" id="Shape" fill="#A3740C"></path>
                <path d="M10.9548431,26.01757 L54.7722705,26.01757 C55.3222251,26.01757 55.7681211,26.4634661 55.7681211,27.0134206 L55.7681211,56.8889393 C55.7681211,57.4388939 55.3222251,57.8847899 54.7722705,57.8847899 L10.9548431,57.8847899 C10.4048885,57.8847899 9.95899245,57.4388939 9.95899245,56.8889393 L9.95899245,27.0134206 C9.95899245,26.4634661 10.4048885,26.01757 10.9548431,26.01757 Z" id="Path" fill="#855E0A"></path>
                <path d="M21.9091999,31.9926737 L21.9091999,50.0881743 C20.5365015,50.5724844 19.7127853,51.9758168 19.9588305,53.4107559 C20.2048755,54.8452088 21.4492026,55.893575 22.9050505,55.8930886 L39.8345111,55.8930886 C41.2903592,55.893575 42.5346861,54.8452088 42.7807313,53.4107559 C43.0267765,51.9758168 42.2030602,50.5724844 40.8303617,50.0881743 L40.8303617,48.8423885 C44.2570021,48.3478669 46.8015754,45.4133168 46.8054655,41.9511799 L46.8054655,39.9594787 C46.8015754,36.4973417 44.2570021,33.5627918 40.8303617,33.0682703 L40.8303617,31.9926737 L21.9091999,31.9926737 Z M44.8137642,41.9511799 C44.811333,44.3163251 43.1473678,46.3547069 40.8303617,46.8307507 L40.8303617,35.079908 C43.1473678,35.5559517 44.811333,37.5938472 44.8137642,39.9594787 L44.8137642,41.9511799 Z" id="Shape" fill="#E2E2E2"></path>
                <path d="M22.9050505,31.9926737 L39.8345111,31.9926737 L39.8345111,48.9221343 C39.8345111,50.0220436 38.9427192,50.9138355 37.8428099,50.9138355 L24.8967518,50.9138355 C23.7968426,50.9138355 22.9050505,50.0220436 22.9050505,48.9221343 L22.9050505,31.9926737 Z" id="Path" fill="#F4C734"></path>
                <path d="M25.8926024,36.9719268 C26.4425571,36.9719268 26.888453,37.4178229 26.888453,37.9677774 L26.888453,43.9428812 C26.888453,44.4928358 26.4425571,44.9387318 25.8926024,44.9387318 C25.3426479,44.9387318 24.8967518,44.4928358 24.8967518,43.9428812 L24.8967518,37.9677774 C24.8967518,37.4178229 25.3426479,36.9719268 25.8926024,36.9719268 Z" id="Path" fill="#E0B730"></path>
                <path d="M35.8511086,43.9428812 C36.4010633,43.9428812 36.8469593,44.3887773 36.8469593,44.9387318 L36.8469593,47.9262837 C36.8469593,48.4762383 36.4010633,48.9221343 35.8511086,48.9221343 C35.3011541,48.9221343 34.855258,48.4762383 34.855258,47.9262837 L34.855258,44.9387318 C34.855258,44.3887773 35.3011541,43.9428812 35.8511086,43.9428812 Z" id="Path" fill="#E0B730"></path>
                <path d="M27.8843037,37.8612876 C27.861936,38.8620007 28.5601984,39.7343426 29.5414613,39.9322484 C30.1201051,40.0309582 30.71285,39.8695215 31.1611774,39.4907288 C31.6095047,39.111936 31.8681924,38.5546875 31.8677061,37.9677774 L31.8677061,40.8488395 C31.8453385,41.8495526 32.5436009,42.7218945 33.5248638,42.9198002 C34.1035076,43.0185101 34.6962525,42.8570734 35.1445799,42.4782807 C35.5929072,42.0994878 35.8515949,41.5422393 35.8511086,40.9553293 L35.8511086,31.9926737 L36.8469593,31.9926737 L36.8469593,31.6819567 C36.884401,29.3771071 35.2141144,27.3985347 32.9350363,27.0494035 C31.4325077,26.8573327 29.9358143,27.4442427 28.9647627,28.6068789 C27.7389134,27.8444308 26.1960256,27.8084478 24.9361384,28.5120591 C23.6762513,29.2161566 22.898243,30.5494683 22.9050505,31.9926737 L26.888453,31.9926737 C27.4384077,31.9926737 27.8843037,32.4385698 27.8843037,32.9885243 L27.8843037,37.8612876 Z" id="Path" fill="#F9F2CC"></path>
                <path d="M40.8303617,52.9055368 L21.9091999,52.9055368 C21.6339795,52.9055368 21.4112746,52.6823457 21.4112746,52.4076115 C21.4112746,52.1323911 21.6339795,51.9096861 21.9091999,51.9096861 L40.8303617,51.9096861 C41.105096,51.9096861 41.3282871,52.1323911 41.3282871,52.4076115 C41.3282871,52.6823457 41.105096,52.9055368 40.8303617,52.9055368 Z" id="Path" fill="#CCCCCC"></path>
            </g>
        </g>
    </g>
</svg>