<?xml version="1.0" encoding="UTF-8"?>
<svg width="59px" height="60px" viewBox="0 0 59 60" version="1.1" xmlns="http://www.w3.org/2000/svg" xmlns:xlink="http://www.w3.org/1999/xlink">
    <!-- Generator: Sketch 53.2 (72643) - https://sketchapp.com -->
    <title>013-oktoberfest</title>
    <desc>Created with Sketch.</desc>
    <g id="App" stroke="none" stroke-width="1" fill="none" fill-rule="evenodd">
        <g id="home" transform="translate(-71.000000, -247.000000)" fill-rule="nonzero">
            <g id="013-oktoberfest" transform="translate(71.000000, 247.000000)">
                <path d="M35.3581891,57.8571429 L35.3581891,34.2857143 L26.7867605,34.2857143 C26.1950684,34.2857143 25.715332,33.805978 25.715332,33.2142857 L25.715332,27.8571429 L15.0010463,27.8571429 L15.0010463,33.2142857 C15.0010463,33.805978 14.52131,34.2857143 13.9296177,34.2857143 L5.35818911,34.2857143 L5.35818911,57.8571429 L35.3581891,57.8571429 Z" id="Path" fill="#F7DDAD"></path>
                <path d="M15.0010462,30.7575335 C18.3351354,32.5985282 22.3807199,32.5985282 25.715332,30.7575335 L25.715332,24.6428571 L15.0010462,24.6428571 L15.0010462,30.7575335 Z" id="Path" fill="#EBD2A4"></path>
                <path d="M4.07226563,27.8796387 C2.57498598,27.9816546 1.34713313,29.1064453 1.11485076,30.5890765 C0.883091518,32.0722307 1.70758929,33.5182408 3.10232973,34.0733119 C4.49707031,34.62786 6.09008786,34.1439383 6.94022036,32.9066685 C7.78982973,31.6693987 7.67054973,30.0088937 6.65248326,28.9060756 C7.80238554,28.834926 8.8251604,28.1495885 9.3279158,27.1126883 C9.8311942,26.0763114 9.73650254,24.8489815 9.07993862,23.9015416 C10.2298409,23.8356236 11.2259346,23.0817522 11.6010394,21.9930595 C11.2735421,21.0382953 11.048584,20.0516183 10.9303501,19.0487235 C10.1157924,18.2325963 8.88950893,17.9882812 7.82383513,18.4293039 C6.75816134,18.8708496 6.06393,19.9108887 6.06497625,21.0644531 C6.06863839,21.5708705 6.21041438,22.0673479 6.47460938,22.5 C6.45943781,22.5 6.44426625,22.5 6.42961768,22.5 C5.15520375,22.4973842 4.00059295,23.2507325 3.48894388,24.4178989 C2.97781808,25.5850655 3.2064383,26.9442313 4.07226563,27.8796387 Z" id="Path" fill="#735109"></path>
                <path d="M37.7150182,28.9510673 C38.7231445,27.8843471 38.8727679,26.2672642 38.0780901,25.0331333 C37.2828892,23.7995257 35.7484654,23.2669503 34.360526,23.7440708 C35.2509417,22.9598563 35.6365096,21.7487444 35.3639439,20.5936105 C35.0919015,19.4389997 34.2051479,18.5281808 33.0578613,18.2247489 C31.9110979,17.921317 30.6900461,18.274449 29.8817663,19.1434152 C29.8153251,19.7147042 29.7180175,20.281808 29.5893206,20.8426339 L29.5893206,20.8499582 C29.4627162,21.4055525 29.3062918,21.9538225 29.1210938,22.4926757 C29.3873814,23.2894461 29.9612863,23.9470564 30.7156808,24.3184989 C31.4695521,24.6899413 32.340611,24.7448731 33.1347656,24.4702149 C32.2140067,25.3465053 31.8995885,26.6847447 32.33381,27.8791154 C32.7680316,29.0734863 33.868757,29.8974609 35.1374163,29.9775042 C34.5525252,30.6037248 34.2454311,31.439209 34.2862374,32.2950963 C34.3265207,33.1509836 34.710519,33.9540319 35.3513881,34.522705 L35.3513881,34.2857143 L39.8740931,34.2857143 C40.702253,33.3785574 40.936628,32.0769391 40.4757254,30.9380231 C40.0148229,29.7996303 38.9413017,29.0264021 37.7150182,28.9510673 L37.7150182,28.9510673 Z" id="Path" fill="#735109"></path>
                <g id="Group" transform="translate(45.000000, 11.785714)" fill="#F9F2CC">
                    <path d="M7.50104625,0 C8.09273853,0 8.57247482,0.479736295 8.57247482,1.07142857 C8.57247482,1.66312085 8.09273853,2.14285714 7.50104625,2.14285714 C6.90935411,2.14285714 6.42961768,1.66312085 6.42961768,1.07142857 C6.42961768,0.479736295 6.90935411,0 7.50104625,0 Z" id="Path"></path>
                    <path d="M6.42961768,11.7857143 C7.02130996,11.7857143 7.50104625,12.2654506 7.50104625,12.8571429 C7.50104625,13.4488351 7.02130996,13.9285714 6.42961768,13.9285714 C5.83792554,13.9285714 5.35818911,13.4488351 5.35818911,12.8571429 C5.35818911,12.2654506 5.83792554,11.7857143 6.42961768,11.7857143 Z" id="Path"></path>
                    <path d="M1.07247482,3.21428571 C1.6641671,3.21428571 2.14390339,3.69402201 2.14390339,4.28571429 C2.14390339,4.87740656 1.6641671,5.35714286 1.07247482,5.35714286 C0.480782679,5.35714286 0.00104625,4.87740656 0.00104625,4.28571429 C0.00104625,3.69402201 0.480782679,3.21428571 1.07247482,3.21428571 Z" id="Path"></path>
                </g>
                <path d="M7.50104625,11.7857143 C7.56173277,16.4601354 9.66535299,25.5055454 13.2631138,28.5001046 C17.3730469,31.9252232 23.3433315,31.9252232 27.4532645,28.5001046 C31.1043876,25.4605539 33.215332,16.5375628 33.215332,11.7857143 L7.50104625,11.7857143 Z" id="Path" fill="#F7DDAD"></path>
                <path d="M34.2867605,21.4285714 L26.7867605,12.8571429 L5.35818911,21.4285714 L5.35818911,14.4642857 C5.35818911,6.47565563 11.8338449,0 19.8224748,0 C27.8105818,0 34.2867605,6.47565563 34.2867605,14.4642857 L34.2867605,21.4285714 Z" id="Path" fill="#855E0A"></path>
                <path d="M26.7867605,21.4285714 C26.7867605,22.0202637 26.3070242,22.5 25.715332,22.5 C25.1236398,22.5 24.6439034,22.0202637 24.6439034,21.4285714 C24.6439034,20.8368792 25.1236398,20.3571429 25.715332,20.3571429 C26.3070242,20.3571429 26.7867605,20.8368792 26.7867605,21.4285714 Z" id="Path" fill="#453105"></path>
                <path d="M16.0724748,21.4285714 C16.0724748,22.0202637 15.5927385,22.5 15.0010463,22.5 C14.4093541,22.5 13.9296177,22.0202637 13.9296177,21.4285714 C13.9296177,20.8368792 14.4093541,20.3571429 15.0010463,20.3571429 C15.5927385,20.3571429 16.0724748,20.8368792 16.0724748,21.4285714 Z" id="Path" fill="#453105"></path>
                <path d="M22.5010462,25.7142857 C22.5010462,26.8976703 21.5415737,27.8571429 20.3581891,27.8571429 C19.1748047,27.8571429 18.215332,26.8976703 18.215332,25.7142857 L22.5010462,25.7142857 Z" id="Path" fill="#F7C7A6"></path>
                <path d="M35.4717146,33.2142857 C34.2145647,33.1876046 29.8550851,33.6108399 28.9296177,34.3103028 L28.9296177,41.4320592 C28.9296177,42.8702218 28.1977191,42.8571429 26.7867605,42.8571429 C24.9598912,42.8566197 23.2198661,43.6361258 22.0045689,45 L18.7112863,45 C17.4959892,43.6361258 15.755964,42.8566197 13.9296177,42.8571429 C12.5181362,42.8571429 11.7867605,42.8702218 11.7867605,41.4320592 L11.7867605,34.311349 C10.8607701,33.6118862 6.50129049,33.188651 5.24466375,33.215332 C2.26527616,33.3775112 -0.0517927232,35.8677455 0.00104631696,38.8513184 L0.00104631696,60 L40.715332,60 L40.715332,38.8513184 C40.7686942,35.8672224 38.4511021,33.3764649 35.4717146,33.2142857 L35.4717146,33.2142857 Z" id="Path" fill="#F5F5F5"></path>
                <path d="M38.5724748,31.0714286 L38.5724748,55.7142857 C37.3890904,55.7142857 36.4296177,56.6737583 36.4296177,57.8571429 C36.4296177,59.0405274 37.3890904,60 38.5724748,60 L56.7867605,60 C57.9701451,60 58.9296177,59.0405274 58.9296177,57.8571429 C58.9296177,56.6737583 57.9701451,55.7142857 56.7867605,55.7142857 L56.7867605,31.0714286 L38.5724748,31.0714286 Z" id="Path" fill="#E2E2E2"></path>
                <path d="M40.715332,31.0714286 L54.6439034,31.0714286 L54.6439034,54.6428571 C54.6439034,55.2345494 54.1641671,55.7142857 53.5724748,55.7142857 L41.7867605,55.7142857 C41.1950684,55.7142857 40.715332,55.2345494 40.715332,54.6428571 L40.715332,31.0714286 Z" id="Path" fill="#F4C734"></path>
                <path d="M43.9296177,31.0714286 L43.9296177,37.5 C43.9296177,38.6833846 44.8890904,39.6428571 46.0724748,39.6428571 C47.2558594,39.6428571 48.215332,38.6833846 48.215332,37.5 L48.215332,40.7142857 C48.215332,41.8976703 49.1748047,42.8571429 50.3581891,42.8571429 C51.5415737,42.8571429 52.5010463,41.8976703 52.5010463,40.7142857 L52.5010463,31.0714286 L43.9296177,31.0714286 Z" id="Path" fill="#F9F2CC"></path>
                <path d="M42.8581891,39.6428571 C43.4498814,39.6428571 43.9296177,40.1225934 43.9296177,40.7142857 L43.9296177,51.4285714 C43.9296177,52.0202637 43.4498814,52.5 42.8581891,52.5 C42.266497,52.5 41.7867605,52.0202637 41.7867605,51.4285714 L41.7867605,40.7142857 C41.7867605,40.1225934 42.266497,39.6428571 42.8581891,39.6428571 Z" id="Path" fill="#E0B730"></path>
                <path d="M52.5010463,47.1428571 C53.0927385,47.1428571 53.5724748,47.6225934 53.5724748,48.2142857 L53.5724748,51.4285714 C53.5724748,52.0202637 53.0927385,52.5 52.5010463,52.5 C51.9093541,52.5 51.4296177,52.0202637 51.4296177,51.4285714 L51.4296177,48.2142857 C51.4296177,47.6225934 51.9093541,47.1428571 52.5010463,47.1428571 Z" id="Path" fill="#E0B730"></path>
                <path d="M56.7867605,57.3214286 L38.5724748,57.3214286 C38.2763672,57.3214286 38.0367605,57.0818221 38.0367605,56.7857143 C38.0367605,56.4896065 38.2763672,56.25 38.5724748,56.25 L56.7867605,56.25 C57.0823452,56.25 57.3224748,56.4896065 57.3224748,56.7857143 C57.3224748,57.0818221 57.0823452,57.3214286 56.7867605,57.3214286 Z" id="Path" fill="#CCCCCC"></path>
                <path d="M33.215332,33.3534458 C32.512207,33.4266881 31.7588588,33.5260882 31.0724748,33.6505998 L31.0724748,49.0393066 C28.2604981,51.9365583 24.3954032,53.5714286 20.3581891,53.5714286 C16.320452,53.5714286 12.4553571,51.9365583 9.64390339,49.0393066 L9.64390339,33.6505998 C8.95699634,33.5260882 8.20364813,33.4266881 7.50104625,33.3534458 L7.50104625,60 L33.215332,60 L33.215332,33.3534458 Z" id="Path" fill="#F49E34"></path>
                <path d="M22.2865513,56.7857143 L23.2721819,56.1291504 C23.764474,55.8006068 23.8973563,55.1351492 23.5693359,54.6428571 C23.2407924,54.150565 22.5753348,54.0176827 22.0830427,54.3462262 L20.3581891,55.4997908 L18.6296735,54.3483189 C18.1373814,54.0197754 17.4719238,54.1526577 17.1439034,54.6449498 C16.81536,55.1372419 16.9482422,55.8026995 17.4405343,56.131243 L18.4293039,56.7857143 L17.4436733,57.4422782 C16.9513811,57.7708217 16.8184989,58.4362793 17.1470424,58.9285714 C17.4755859,59.4208635 18.1405204,59.5537458 18.6328125,59.2252023 L20.3581891,58.0716378 L22.0861816,59.2231097 C22.5784738,59.5516532 23.2439314,59.4187709 23.5724748,58.9264788 C23.9004952,58.4341867 23.767613,57.7687291 23.2753208,57.4401856 L22.2865513,56.7857143 Z" id="Path" fill="#C47F2A"></path>
            </g>
        </g>
    </g>
</svg>